<svg width="512" height="512" viewBox="0 0 512 512" fill="none" xmlns="http://www.w3.org/2000/svg">
  <rect width="512" height="512" fill="#2E3440" />
  <mask id="mask0_201_50" style="mask-type:alpha" maskUnits="userSpaceOnUse" x="114" y="41" width="284" height="357">
    <path d="M344.026 115.132L343 115.106V116.132V128.135V129.109L343.973 129.135C346.839 129.212 349.39 129.333 351.702 129.522C357.939 130.031 361.855 131.004 364.982 132.597C371.191 135.761 376.239 140.809 379.403 147.018C380.996 150.145 381.969 154.061 382.478 160.298C382.995 166.617 383 174.683 383 186V326C383 337.317 382.995 345.383 382.478 351.702C381.969 357.939 380.996 361.855 379.403 364.982C376.239 371.191 371.191 376.239 364.982 379.403C361.855 380.996 357.939 381.969 351.702 382.478C345.383 382.995 337.317 383 326 383H186C174.683 383 166.617 382.995 160.298 382.478C154.061 381.969 150.145 380.996 147.018 379.403C140.809 376.239 135.761 371.191 132.597 364.982C131.004 361.855 130.031 357.939 129.522 351.702C129.005 345.383 129 337.317 129 326V186C129 174.683 129.005 166.617 129.522 160.298C130.031 154.061 131.004 150.145 132.597 147.018C135.761 140.809 140.809 135.761 147.018 132.597C150.145 131.004 154.061 130.031 160.298 129.522C166.617 129.005 174.683 129 186 129H284H285V128V116V115H284H186H185.732L185.688 115C174.75 115 166.114 115 159.158 115.568C152.055 116.149 146.092 117.356 140.662 120.123C131.819 124.629 124.629 131.819 120.123 140.662C117.356 146.092 116.149 152.055 115.568 159.158C115 166.114 115 174.75 115 185.688L115 185.732V186V326V326.268L115 326.312C115 337.25 115 345.886 115.568 352.842C116.149 359.945 117.356 365.908 120.123 371.338C124.629 380.181 131.819 387.371 140.662 391.877C146.092 394.644 152.055 395.851 159.158 396.432C166.113 397 174.75 397 185.687 397H185.731H185.731H186H326H326.269H326.269H326.313C337.25 397 345.887 397 352.842 396.432C359.945 395.851 365.908 394.644 371.338 391.877C380.181 387.371 387.371 380.181 391.877 371.338C394.644 365.908 395.851 359.945 396.432 352.842C397 345.887 397 337.25 397 326.313V326.269V326.269V326V186V185.731V185.731V185.687C397 174.75 397 166.113 396.432 159.158C395.851 152.055 394.644 146.092 391.877 140.662C387.371 131.819 380.181 124.629 371.338 120.123C365.908 117.356 359.945 116.149 352.842 115.568C350.159 115.349 347.232 115.215 344.026 115.132ZM326.268 117H326.735V116V115H326.268V116V117Z"
          fill="black" stroke="#B48EAD" stroke-width="2" />
    <g opacity="0.4">
      <path d="M296 68H308V92H296V68Z" fill="black" />
      <path d="M308 68L320 56V68H308Z" fill="black" />
      <path d="M320 80L332 68V80H320Z" fill="black" />
      <path d="M338 62L344 68L350 62L356 68L344 80L332 68L338 62Z" fill="black" />
    </g>
    <path d="M349.293 62.7071L350 63.4142L350.707 62.7071L356.707 56.7071L357.414 56L356.707 55.2929L344.707 43.2929L344 42.5858L343.293 43.2929L331.293 55.2929L330.586 56L331.293 56.7071L337.293 62.7071L338 63.4142L338.707 62.7071L344 57.4142L349.293 62.7071ZM320.707 56.7071L322.414 55H320H308H307.586L307.293 55.2929L295.293 67.2929L293.586 69H296H307.586L318.586 80L307.586 91H296H295.586L295.293 91.2929L283.293 103.293L283 103.586V104V180V181H284H331V200V201H332H344H345V200V80V79H344H332H331V80V167H321V80.4142L332.707 68.7071L334.414 67H332H310.414L320.707 56.7071ZM307 94.4142V167H297V104.414L307 94.4142Z"
          fill="black" stroke="#B48EAD" stroke-width="2" />
    <path d="M240 300.001L180 231.406V173.128L240 241.723L240 300.001Z" fill="url(#paint0_linear_201_50)" />
    <path d="M272 212L332 280.595L332 338.873L272 270.278L272 212Z" fill="url(#paint1_linear_201_50)" />
    <path d="M229 332V331H228H190C185.029 331 181 326.971 181 322V190C181 185.029 185.029 181 190 181H223.647C226.248 181 228.722 182.125 230.431 184.086L269.769 229.211C270.563 230.121 271 231.288 271 232.496V256V257H272H284H285V256V232.496C285 227.906 283.338 223.471 280.322 220.011L240.984 174.886C236.616 169.876 230.294 167 223.647 167H190C177.297 167 167 177.297 167 190V322C167 334.703 177.297 345 190 345H228H229V344V332Z"
          fill="black" stroke="#B48EAD" stroke-width="2" />
    <path d="M283 180V181H284H322C326.971 181 331 185.029 331 190V322C331 326.971 326.971 331 322 331H288.353C285.752 331 283.278 329.875 281.569 327.914L242.231 282.789C241.437 281.879 241 280.712 241 279.504V256V255H240H228H227V256V279.504C227 284.094 228.662 288.529 231.678 291.989L271.016 337.114C275.384 342.124 281.706 345 288.353 345H322C334.703 345 345 334.703 345 322V190C345 177.297 334.703 167 322 167H284H283V168V180Z"
          fill="black" stroke="#B48EAD" stroke-width="2" />
    <path d="M278 227H234C230.134 227 227 230.134 227 234V278C227 281.866 230.134 285 234 285H278C281.866 285 285 281.866 285 278V234C285 230.134 281.866 227 278 227Z"
          fill="black" stroke="#B48EAD" stroke-width="2" />
  </mask>
  <g mask="url(#mask0_201_50)">
    <rect width="512" height="512" fill="#B48EAD" />
  </g>
  <defs>
    <linearGradient id="paint0_linear_201_50" x1="151.5" y1="267" x2="242" y2="284" gradientUnits="userSpaceOnUse">
      <stop />
      <stop offset="0.543458" stop-opacity="0.505208" />
      <stop offset="1" stop-opacity="0" />
    </linearGradient>
    <linearGradient id="paint1_linear_201_50" x1="360.5" y1="245.001" x2="270" y2="228.001"
                    gradientUnits="userSpaceOnUse">
      <stop />
      <stop offset="0.543458" stop-opacity="0.505208" />
      <stop offset="1" stop-opacity="0" />
    </linearGradient>
  </defs>
</svg>